<svg id="SVGRoot" width="16px" height="16px" version="1.1" viewBox="0 0 16 16" xmlns="http://www.w3.org/2000/svg" xmlns:xlink="http://www.w3.org/1999/xlink">
 <rect x="-15" y="130" width="2175" height="790" fill-opacity="0" opacity=".53439" stroke-opacity="0"/>
 <g stroke-width=".0085723">
  <g fill="#5ba4da" fill-rule="evenodd" stroke="#000">
   <path d="m3.0917 11.27c0.46208 0 0.8989-0.12033 1.2872-0.33418h-2.5744c0.38832 0.21385 0.82514 0.33418 1.2871 0.33418" style="mix-blend-mode:multiply"/>
   <path d="m1.8046 5.0645h2.5742c-0.38831-0.21385-0.82505-0.33427-1.2871-0.33427-0.46199 0-0.89873 0.12043-1.287 0.33427" style="mix-blend-mode:multiply"/>
   <path d="m2.7567 7.9337c-0.016979-0.022623-0.042327-0.037053-0.070626-0.037053h-2.1997c-0.029788-0.049441-0.080205-0.082012-0.13743-0.082012-0.089956 0-0.16311 0.080354-0.16546 0.1803l-9.328e-5 0.00507 9.328e-5 0.00497c0.002332 0.10005 0.075505 0.1803 0.16546 0.1803 0.057216 0 0.10764-0.03247 0.13743-0.08191h2.1997c0.028308 0 0.053646-0.014429 0.070625-0.037054l0.68964-0.014037 2.5536-0.052269-2.5536-0.052269-0.68963-0.014043" style="mix-blend-mode:multiply"/>
   <path d="m3.4944 7.409-0.68955-0.01404c-0.016979-0.022625-0.042408-0.037057-0.070715-0.037057h-2.1997c-0.029698-0.049439-0.080115-0.08201-0.13742-0.08201-0.091441 0-0.16555 0.082985-0.16555 0.18538 0 0.10239 0.074106 0.18537 0.16555 0.18537 0.057216 0 0.10773-0.032568 0.13742-0.082011h2.1997c0.028299 0 0.053727-0.014429 0.070715-0.037054l0.68955-0.014041 2.4895-0.050903-3.498e-4 -0.00263-2.4892-0.051001" style="mix-blend-mode:multiply"/>
   <path d="m3.6148 6.8882-0.68955-0.014042c-0.016979-0.022624-0.042408-0.037152-0.070715-0.037152h-2.1997c-0.029698-0.049442-0.080205-0.081913-0.13742-0.081913-0.091439 0-0.16555 0.082983-0.16555 0.18538 0 0.10239 0.074115 0.18528 0.16555 0.18528 0.057216 0 0.10773-0.032474 0.13742-0.081912h2.1997c0.028299 0 0.053727-0.014435 0.070715-0.037055l0.68955-0.014042 2.2538-0.046125c-0.00126-0.00419-0.0026-0.00819-0.00386-0.012383l-2.25-0.046028" style="mix-blend-mode:multiply"/>
   <path d="m3.8339 6.369-0.68964-0.014043c-0.016979-0.022722-0.042327-0.037152-0.070626-0.037152h-2.1997c-0.029779-0.04944-0.080205-0.081913-0.13742-0.081913-0.056956 0-0.1072 0.032181-0.13698 0.081229-0.003677 0.00673-0.007176 0.013555-0.01071 0.020282-0.011409 0.02516-0.017858 0.053633-0.017858 0.083766 0 0.10239 0.074115 0.18538 0.16555 0.18538 0.057216 0 0.10764-0.032471 0.13742-0.081915h2.1997c0.028308 0 0.053646-0.014527 0.070625-0.037052l0.68964-0.01414 1.8344-0.037447c-0.00484-0.010041-0.00993-0.019894-0.014889-0.029839l-1.8195-0.037152" style="mix-blend-mode:multiply"/>
   <path d="m4.1648 5.8714-0.68955-0.01414c-0.016979-0.022622-0.042408-0.037055-0.070715-0.037055h-2.1997c-0.029689-0.049438-0.080205-0.08191-0.13742-0.08191-0.091443 0-0.16555 0.082983-0.16555 0.18527 0 0.10239 0.074106 0.18538 0.16555 0.18538 0.057216 0 0.10773-0.032473 0.13742-0.081912h2.1997c0.028308 0 0.053736-0.014532 0.070715-0.037057l0.68955-0.014139 1.2141-0.024768c-0.013499-0.018724-0.027168-0.03735-0.040928-0.055682l-1.1731-0.023986" style="mix-blend-mode:multiply"/>
   <path d="m4.6735 5.3855-0.68955-0.014046c-0.016988-0.022621-0.042417-0.037054-0.070715-0.037054h-2.1997c-0.029698-0.04944-0.080115-0.08201-0.13742-0.08201-0.091443 0-0.16555 0.082986-0.16555 0.18537s0.074106 0.18537 0.16555 0.18537c0.057216 0 0.10772-0.03257 0.13742-0.081912h2.1997c0.028299 0 0.053727-0.014528 0.070715-0.037149l0.68955-0.014046 0.29496-0.00605c-0.034918-0.032466-0.070535-0.063964-0.10676-0.094585l-0.18819-0.00392" style="mix-blend-mode:multiply"/>
   <path d="m2.8049 8.4724c-0.016979-0.022625-0.042408-0.037056-0.070715-0.037056h-2.1997c-0.029698-0.049438-0.080205-0.082009-0.13742-0.082009-0.091441 0-0.16555 0.083083-0.16555 0.18537 0 0.10239 0.074106 0.18537 0.16555 0.18537 0.057306 0 0.10773-0.032471 0.13742-0.081909h2.1997c0.028299 0 0.053727-0.014436 0.070715-0.037157l0.68955-0.01404 2.4892-0.050902 3.49e-4 -0.00263-2.4895-0.051006-0.68955-0.01404" style="mix-blend-mode:multiply"/>
   <path d="m2.9253 8.9932c-0.016979-0.022624-0.042408-0.037151-0.070715-0.037151h-2.1997c-0.029698-0.049345-0.080205-0.081913-0.13742-0.081913-0.091439 0-0.16555 0.082986-0.16555 0.18537 0 0.10239 0.074115 0.18537 0.16555 0.18537 0.057216 0 0.10773-0.03257 0.13742-0.082011h2.1997c0.028299 0 0.053727-0.014427 0.070715-0.037054l0.68955-0.01414 2.25-0.046026 0.00386-0.012289-2.2538-0.046123-0.68955-0.014043" style="mix-blend-mode:multiply"/>
   <path d="m3.1443 9.5124c-0.016979-0.022627-0.042327-0.037059-0.070626-0.037059h-2.1997c-0.029779-0.049435-0.080205-0.082005-0.13742-0.082005-0.091439 0-0.16555 0.082979-0.16555 0.18537 0 0.030132 0.006458 0.058704 0.017858 0.083863 0.003588 0.00673 0.007176 0.013553 0.01071 0.020284 0.029779 0.049048 0.080034 0.081228 0.13698 0.081228 0.057216 0 0.10764-0.03257 0.13742-0.082007h2.1997c0.028308 0 0.053646-0.014433 0.070625-0.037059l0.68964-0.01404 1.8196-0.03725c0.00493-0.00995 0.00993-0.019797 0.014809-0.02974l-1.8344-0.037541-0.68964-0.01404" style="mix-blend-mode:multiply"/>
   <path d="m3.4753 10.01c-0.016979-0.022623-0.042408-0.037059-0.070715-0.037059h-2.1997c-0.029689-0.04944-0.080205-0.08201-0.13742-0.08201-0.091443 0-0.16555 0.082986-0.16555 0.18538 0 0.10239 0.074106 0.18537 0.16555 0.18537 0.057216 0 0.10773-0.03247 0.13742-0.08201h2.1997c0.028308 0 0.053736-0.01443 0.070715-0.03705l0.68955-0.01404 1.1731-0.02408c0.013849-0.01833 0.027429-0.03686 0.040928-0.05558l-1.2141-0.02487-0.68955-0.01405" style="mix-blend-mode:multiply"/>
   <path d="m3.984 10.496c-0.016988-0.022621-0.042417-0.037059-0.070715-0.037059h-2.1997c-0.029698-0.04944-0.080205-0.08191-0.13742-0.08191-0.091443 0-0.16555 0.08288-0.16555 0.18528 0 0.10239 0.074106 0.18537 0.16555 0.18537 0.057297 0 0.10772-0.03247 0.13742-0.08201h2.1997c0.028299 0 0.053727-0.01443 0.070715-0.03706l0.68955-0.01405 0.18819-0.0038c0.036228-0.03062 0.071845-0.06221 0.10677-0.09468l-0.29496-6e-3 -0.68955-0.01405" style="mix-blend-mode:multiply"/>
  </g>
  <text transform="scale(.82865 1.2068)" x="3.714366" y="6.5676193" fill="#000000" font-family="sans-serif" font-size="1.866px" stroke="#000000" style="line-height:1.25;mix-blend-mode:multiply" xml:space="preserve"><tspan x="3.714366" y="6.5676193" font-family="sans-serif" font-size="1.866px" font-weight="bold" stroke="#000000" stroke-width=".0085723">ALICE BRAGA</tspan></text>
  <text transform="scale(.82217 1.2163)" x="4.1466165" y="7.3594208" fill="#000000" font-family="sans-serif" font-size=".86193px" stroke="#000000" style="line-height:1.25;mix-blend-mode:multiply" xml:space="preserve"><tspan x="4.1466165" y="7.3594208" font-family="sans-serif" font-size=".86193px" font-weight="bold" stroke="#000000" stroke-width=".0085723">PSICOTERAPEUTA CLÍNICA </tspan></text>
 </g>
</svg>
